<svg width="350" height="350" viewBox="0 0 350 350" fill="none" xmlns="http://www.w3.org/2000/svg">
<g clip-path="url(#clip0_74_813)">
<rect width="350" height="350" rx="51.1" transform="matrix(-1 0 0 1 350 0)" fill="url(#paint0_linear_74_813)"/>
<g clip-path="url(#clip1_74_813)">
<path d="M72.882 252.976C79.5249 255.511 86.4043 257.773 93.5043 257.989C102.384 258.247 111.053 255.294 119.918 254.717C128.891 254.131 137.938 255.982 146.864 254.849C155.288 253.78 163.126 250.112 170.81 246.505L219.224 223.713C227.686 219.727 236.236 215.698 243.626 209.952C252.68 202.921 259.65 193.592 266.195 184.166C284.554 157.73 301.092 126.698 296.11 94.9086C294.186 82.658 289.034 70.9228 281.301 61.2274C276.472 55.1695 270.396 49.7552 262.975 47.5582C251.399 44.1369 238.575 49.4011 230.221 58.1125C221.876 66.8215 217.3 78.4466 213.956 90.0509C210.619 101.643 208.288 113.596 203.503 124.667C195.08 144.156 179.571 159.719 162.92 172.881C143.367 188.339 121.349 201.341 97.0849 207.043C67.3516 214.032 36.1591 209.683 6.26827 203.408C2.33173 202.585 -2.06439 201.016 -6.0205 200.977C-6.62323 205.773 5.77519 213.609 9.21308 216.374C15.529 221.454 22.0968 226.207 28.8998 230.608C42.7285 239.569 57.4877 247.082 72.8702 252.969L72.882 252.976Z" fill="white"/>
<path d="M243.308 240.414C242.267 242.531 241.129 244.624 239.568 246.401C237.62 248.601 235.112 250.202 232.625 251.768C230.925 252.842 229.027 253.96 227.035 253.645C224.343 253.218 222.784 250.419 221.74 247.902C219.258 241.884 217.434 235.6 216.316 229.187C216.225 228.662 216.145 228.104 216.366 227.625C216.588 227.146 217.077 226.845 217.542 226.571C225.763 221.761 234.267 217.335 241.882 211.568C245.311 208.971 247.869 208.116 248.899 213.264C249.734 217.425 249.238 222.023 248.383 226.138C247.355 231.099 245.539 235.881 243.299 240.417L243.308 240.414Z" fill="white"/>
<path d="M186.495 48.3719C143.404 66.2714 109.174 99.8367 72.3105 128.454C63.1731 135.547 53.6837 142.445 42.8839 146.578C12.9751 158.018 -21.7939 147.256 -44.0003 124.178C-31.9376 108.579 -24.1072 90.1585 -33.0455 66.7915C-46.6753 69.7943 -56.0761 80.5643 -59.6947 94.0503C-60.4236 96.7729 -60.8876 99.6642 -62.4467 102.01C-64.0058 104.356 -67.1164 106.018 -69.6872 104.849C-83.1918 98.7381 -100.376 102.044 -110.649 112.728C-106.33 121.84 -97.4039 128.198 -87.7715 131.191C-78.1392 134.184 -67.8274 134.158 -57.7871 133.156C-51.2354 167.971 -24.7172 197.486 10.2225 203.367C36.3745 207.767 66.3888 211.782 92.5558 207.478C80.739 227.536 68.5959 248.65 67.5758 271.908C67.471 274.164 67.6052 276.715 69.2715 278.237C70.99 279.804 73.6295 279.626 75.9244 279.281C121.526 272.386 159.445 230.86 162.172 184.818C162.464 179.905 162.739 174.258 166.653 171.271C183.924 158.073 197.494 140.082 205.439 119.853C211.36 104.781 214.204 88.5556 221.188 73.9481C227.089 61.5986 237.281 48.8586 251.371 46.0822C253.638 45.6344 256.067 45.8627 258.276 45.2709C259.142 45.0386 259.601 44.3264 259.118 43.4569C258.348 42.0749 256.444 41.5662 255.043 41.1826C247.263 39.1017 238.764 37.2435 230.678 37.4123C221.885 37.5906 213.169 39.3967 204.759 41.8599C198.554 43.6822 192.464 45.8935 186.495 48.3719Z" fill="white"/>
<path d="M126.439 253.029C174.135 248.4 219.909 229.812 254.213 195.817C284.777 165.532 305.518 119.059 287.611 76.6479C283.845 67.7378 278.231 59.5726 270.819 53.3077C263.107 46.7833 253.728 43.2829 243.882 41.4661C223.212 37.6548 201.822 42.4171 182.73 50.4596C139.801 68.5554 107.476 102.519 72.2331 131.741C55.4125 145.688 36.7415 156.495 14.1972 155.493C-4.6064 154.658 -22.4749 146.799 -37.0515 135.122C-40.7146 132.188 -44.1387 128.99 -47.358 125.587C-49.8006 122.995 -45.9114 119.056 -43.4663 121.657C-29.9071 136.025 -11.8313 146.744 7.94168 149.408C19.082 150.908 30.4348 149.734 40.8746 145.488C51.756 141.064 61.2555 133.794 70.1705 126.28C105.782 96.2705 139.127 62.1631 183.059 44.3781C202.353 36.5709 223.519 32.3882 244.254 35.9222C254.136 37.6097 263.69 40.9831 271.764 47.0309C279.352 52.7194 285.462 60.2022 289.886 68.5864C311.08 108.798 295.41 157.498 267.375 189.873C235.914 226.203 191.195 248.544 144.129 256.271C138.245 257.238 132.331 257.983 126.391 258.556C122.856 258.894 122.912 253.365 126.427 253.023L126.439 253.029Z" fill="#1A0F9D"/>
<path d="M-56.21 130.576C-40.2953 173.94 -7.31068 208.575 33.0157 230.384C45.7728 237.284 59.1555 242.829 73.1019 246.823C76.5215 247.805 75.076 253.147 71.6446 252.158C25.1255 238.851 -17.5921 208.602 -43.8678 167.765C-51.0898 156.544 -56.9559 144.531 -61.5478 132.016C-62.7744 128.669 -57.4172 127.263 -56.1982 130.583L-56.21 130.576Z" fill="#1A0F9D"/>
<path d="M91.3742 208.734C53.4676 216.124 12.4978 212.827 -22.1244 194.934C-25.2906 193.295 -22.5181 188.506 -19.3544 190.136C13.9008 207.327 53.5249 210.485 89.9407 203.384C93.4143 202.703 94.8757 208.045 91.3742 208.734Z" fill="#1A0F9D"/>
<path d="M266.094 50.2894C254.06 46.8711 241.509 50.1342 232.455 58.7334C223.528 67.2088 219.394 78.5455 216.675 90.2821C214.072 101.558 211.785 112.63 207.14 123.294C202.746 133.401 196.922 142.794 190.097 151.435C182.347 161.243 173.237 169.818 163.307 177.383C160.478 179.539 157.704 174.739 160.509 172.609C179.061 158.488 194.612 139.876 203.358 118.124C212.207 96.1242 210.906 69.4222 230.578 52.9933C240.92 44.3584 254.553 41.2549 267.558 44.9424C270.984 45.9123 269.529 51.2567 266.101 50.2776L266.094 50.2894Z" fill="#1A0F9D"/>
<path d="M185.806 113.756C183.969 110.332 180.001 108.908 176.5 110.865C172.737 112.962 171.996 117.317 173.246 121.127C174.354 124.516 169.011 125.938 167.897 122.56C165.758 116.031 168.211 108.671 174.61 105.638C180.522 102.835 187.511 105.248 190.582 110.968C192.262 114.104 187.49 116.911 185.808 113.765L185.806 113.756Z" fill="#1A0F9D"/>
<path d="M250.497 205.624C253.227 220.136 249.813 235.355 240.823 247.134C237.09 252.03 230.446 259.295 223.642 255.114C220.355 253.098 219.187 248.776 217.873 245.402C216.17 241.024 214.67 236.581 213.307 232.091C212.274 228.682 217.624 227.249 218.657 230.658C219.644 233.93 220.702 237.172 221.87 240.375C222.862 243.106 223.859 248.134 226.134 250.061C230.567 253.818 237.666 242.326 239.419 239.359C245.126 229.679 247.227 218.098 245.155 207.046C244.502 203.565 249.844 202.103 250.504 205.612L250.497 205.624Z" fill="#1A0F9D"/>
<path d="M85.0052 220.639C65.305 222.721 45.4709 222.401 25.8822 219.419C23.6859 219.089 24.6105 215.754 26.795 216.078C46.0716 219.014 65.6557 219.221 85.0265 217.177C87.2321 216.945 87.1989 220.401 85.0052 220.639Z" fill="#21BD4D"/>
<path d="M237.183 72.4599C238.864 92.0076 236.259 111.475 228.545 129.585C220.34 148.845 207.506 165.889 191.392 179.227C181.964 187.027 171.617 193.596 160.698 199.109C158.718 200.109 156.962 197.133 158.948 196.121C194.816 177.99 224.231 146.514 232.199 106.2C234.392 95.074 234.692 83.7058 233.727 72.4267C233.533 70.2112 236.998 70.2418 237.189 72.4481L237.183 72.4599Z" fill="#21BD4D"/>
<path d="M78.8524 234.734C65.5809 234.824 52.3616 233.841 39.2565 231.719C37.0621 231.358 37.9866 228.023 40.1693 228.378C52.9741 230.461 65.9137 231.369 78.8738 231.272C81.097 231.256 81.0756 234.718 78.8524 234.734Z" fill="#21BD4D"/>
<path d="M255.916 66.6206C262.672 92.4304 259.675 119.904 248.604 144.088C237.329 168.705 217.863 188.696 195.074 202.963C181.611 211.395 167.014 217.834 151.957 222.817C149.846 223.513 148.952 220.176 151.063 219.481C176.364 211.123 200.461 198.273 219.504 179.385C238.036 161.014 250.869 137.368 254.859 111.475C257.117 96.8257 256.329 81.8433 252.579 67.5146C252.012 65.3592 255.358 64.4627 255.916 66.6206Z" fill="#21BD4D"/>
<path d="M271.936 62.9583C285.657 90.7176 283.019 122.251 269.845 149.695C255.678 179.213 231.192 202.916 202.597 218.439C183.465 228.83 162.666 235.681 141.485 240.438C139.319 240.928 138.413 237.585 140.591 237.101C175.585 229.243 209.749 215.194 235.985 190.084C257.179 169.791 273.905 142.554 277.236 112.972C279.101 96.3702 276.368 79.7213 268.963 64.7239C267.982 62.7393 270.955 60.9737 271.95 62.9744L271.936 62.9583Z" fill="#21BD4D"/>
<path d="M107.606 178.382C98.9623 195.781 90.3028 213.195 82.6762 231.072C78.7988 240.162 75.2043 249.376 72.0171 258.731C70.5449 263.041 68.8571 267.479 67.8599 271.922C67.3678 274.111 67.1087 276.239 69.3172 277.435C71.2116 278.466 73.7528 278.294 75.8193 278.14C93.7769 276.824 110.526 266.972 123.385 254.866C135.852 243.125 145.916 228.531 152.27 212.614C159.362 194.831 161.673 175.162 155.809 156.705C154.729 153.309 160.081 151.885 161.159 155.272C172.732 191.718 154.834 232.065 128.579 257.55C114.785 270.936 97.3813 281.143 78.0662 283.431C70.6219 284.317 60.743 282.529 62.0558 272.778C62.7341 267.741 64.8487 262.659 66.4695 257.86C68.2241 252.665 70.113 247.524 72.1007 242.416C80.9986 219.554 91.9075 197.562 102.817 175.609C104.409 172.416 109.19 175.2 107.615 178.379L107.606 178.382Z" fill="#1A0F9D"/>
</g>
<path d="M78.4 289.04H91.68C94.24 289.04 96.2267 289.68 97.64 290.96C99.08 292.24 99.8 294.107 99.8 296.56C99.8 297.867 99.48 299.053 98.84 300.12C98.2267 301.16 97.4 301.96 96.36 302.52C99.2667 303.48 100.72 305.627 100.72 308.96C100.72 310.613 100.347 312.053 99.6 313.28C98.8533 314.48 97.84 315.4 96.56 316.04C95.3067 316.68 93.9067 317 92.36 317H78.4V289.04ZM90.88 300.68C92.0267 300.68 92.9467 300.373 93.64 299.76C94.3333 299.12 94.68 298.16 94.68 296.88C94.68 295.413 94.3333 294.413 93.64 293.88C92.9733 293.32 91.9733 293.04 90.64 293.04H83.44V300.68H90.88ZM91.2 313C92.6133 313 93.6933 312.707 94.44 312.12C95.2133 311.533 95.6 310.493 95.6 309C95.6 307.507 95.2 306.427 94.4 305.76C93.6 305.093 92.44 304.76 90.92 304.76H83.44V313H91.2ZM111.768 317.6C109.475 317.6 107.595 317 106.128 315.8C104.661 314.573 103.928 312.933 103.928 310.88C103.928 308.747 104.621 307.08 106.008 305.88C107.395 304.68 109.341 304.08 111.848 304.08C114.275 304.08 116.368 304.573 118.128 305.56V305.04C118.128 303.68 117.701 302.693 116.848 302.08C116.021 301.467 114.675 301.16 112.808 301.16C111.635 301.16 110.475 301.28 109.328 301.52C108.181 301.733 107.168 302.04 106.288 302.44V298.48C107.088 298.107 108.155 297.8 109.488 297.56C110.848 297.32 112.155 297.2 113.408 297.2C116.741 297.2 119.208 297.92 120.808 299.36C122.408 300.773 123.208 302.747 123.208 305.28V317H118.448V315.12C117.621 315.92 116.675 316.533 115.608 316.96C114.568 317.387 113.288 317.6 111.768 317.6ZM113.008 313.92C114.128 313.92 115.141 313.707 116.048 313.28C116.955 312.827 117.648 312.213 118.128 311.44V309.32C116.661 308.28 114.981 307.76 113.088 307.76C110.395 307.76 109.048 308.8 109.048 310.88C109.048 311.893 109.381 312.653 110.048 313.16C110.741 313.667 111.728 313.92 113.008 313.92ZM127.814 297.8H132.694V300.4C133.601 299.307 134.681 298.507 135.934 298C137.187 297.467 138.507 297.2 139.894 297.2C142.481 297.2 144.414 297.907 145.694 299.32C146.974 300.707 147.614 302.56 147.614 304.88V317H142.574V305.36C142.574 302.56 141.267 301.16 138.654 301.16C137.507 301.16 136.427 301.44 135.414 302C134.401 302.533 133.547 303.347 132.854 304.44V317H127.814V297.8ZM162.388 326.2C161.108 326.2 159.828 326.08 158.548 325.84C157.268 325.6 156.201 325.28 155.348 324.88V320.88C157.428 321.787 159.775 322.24 162.388 322.24C164.735 322.24 166.415 321.747 167.428 320.76C168.468 319.773 168.988 318.307 168.988 316.36V315.12C168.081 315.947 167.001 316.573 165.748 317C164.495 317.4 163.148 317.6 161.708 317.6C159.761 317.6 158.001 317.173 156.428 316.32C154.855 315.44 153.628 314.227 152.748 312.68C151.868 311.133 151.428 309.36 151.428 307.36C151.428 305.333 151.855 303.56 152.708 302.04C153.588 300.493 154.788 299.307 156.308 298.48C157.855 297.627 159.601 297.2 161.548 297.2C163.175 297.2 164.575 297.427 165.748 297.88C166.921 298.307 168.055 299.027 169.148 300.04V297.8H174.028V315.84C174.028 319.147 173.068 321.693 171.148 323.48C169.255 325.293 166.335 326.2 162.388 326.2ZM162.788 313.64C164.228 313.64 165.508 313.253 166.628 312.48C167.775 311.68 168.561 310.627 168.988 309.32V305.44C168.535 304.133 167.748 303.093 166.628 302.32C165.508 301.547 164.228 301.16 162.788 301.16C160.975 301.16 159.481 301.733 158.308 302.88C157.135 304.027 156.548 305.52 156.548 307.36C156.548 309.2 157.135 310.707 158.308 311.88C159.481 313.053 160.975 313.64 162.788 313.64ZM191.31 317.6C189.683 317.6 188.283 317.387 187.11 316.96C185.936 316.507 184.803 315.773 183.71 314.76V317H178.83V287.44H183.87V299.68C184.776 298.853 185.87 298.24 187.15 297.84C188.456 297.413 189.843 297.2 191.31 297.2C193.256 297.2 194.99 297.64 196.51 298.52C198.056 299.373 199.256 300.573 200.11 302.12C200.99 303.667 201.43 305.44 201.43 307.44C201.43 309.467 200.99 311.253 200.11 312.8C199.256 314.32 198.056 315.507 196.51 316.36C194.99 317.187 193.256 317.6 191.31 317.6ZM190.07 313.64C191.883 313.64 193.376 313.067 194.55 311.92C195.723 310.773 196.31 309.28 196.31 307.44C196.31 305.6 195.723 304.093 194.55 302.92C193.376 301.747 191.883 301.16 190.07 301.16C188.63 301.16 187.336 301.56 186.19 302.36C185.07 303.133 184.296 304.173 183.87 305.48V309.36C184.323 310.667 185.11 311.707 186.23 312.48C187.35 313.253 188.63 313.64 190.07 313.64ZM214.856 317.6C212.616 317.6 210.642 317.2 208.936 316.4C207.256 315.573 205.949 314.4 205.016 312.88C204.082 311.333 203.616 309.507 203.616 307.4C203.616 305.347 204.069 303.56 204.976 302.04C205.909 300.493 207.229 299.307 208.936 298.48C210.642 297.627 212.616 297.2 214.856 297.2C217.096 297.2 219.056 297.627 220.736 298.48C222.442 299.307 223.762 300.493 224.696 302.04C225.629 303.56 226.096 305.347 226.096 307.4C226.096 309.507 225.629 311.333 224.696 312.88C223.762 314.4 222.442 315.573 220.736 316.4C219.056 317.2 217.096 317.6 214.856 317.6ZM214.856 313.64C216.696 313.64 218.162 313.067 219.256 311.92C220.349 310.747 220.896 309.24 220.896 307.4C220.896 305.453 220.349 303.933 219.256 302.84C218.189 301.72 216.722 301.16 214.856 301.16C212.989 301.16 211.509 301.72 210.416 302.84C209.349 303.933 208.816 305.453 208.816 307.4C208.816 309.24 209.362 310.747 210.456 311.92C211.549 313.067 213.016 313.64 214.856 313.64ZM226.663 297.8H231.703L235.622 310.8L239.463 297.8H243.863L247.703 310.8L251.623 297.8H256.663L250.383 317H245.743L241.663 303.96L237.583 317H232.943L226.663 297.8Z" fill="white"/>
</g>
<defs>
<linearGradient id="paint0_linear_74_813" x1="175" y1="0" x2="175" y2="350" gradientUnits="userSpaceOnUse">
<stop stop-color="#4770FF"/>
<stop offset="1" stop-color="#57BB59"/>
</linearGradient>
<clipPath id="clip0_74_813">
<rect width="350" height="350" fill="white" transform="matrix(-1 0 0 1 350 0)"/>
</clipPath>
<clipPath id="clip1_74_813">
<rect width="405.954" height="253.638" fill="white" transform="matrix(-0.965926 0.258819 0.258819 0.965926 269.121 -17)"/>
</clipPath>
</defs>
</svg>
