<svg width="181" height="113" viewBox="0 0 181 113" fill="none" xmlns="http://www.w3.org/2000/svg">
<path d="M64.9825 93.1219C67.5371 94.9704 70.2244 96.7291 73.2412 97.6363C77.0153 98.766 81.0676 98.4964 84.9317 99.2666C88.8428 100.045 92.5057 101.877 96.4595 102.416C100.191 102.925 103.969 102.253 107.675 101.59L131.03 97.3838C135.113 96.6478 139.238 95.9033 143.063 94.2901C147.749 92.3174 151.805 89.1209 155.691 85.8346C166.59 76.6174 177.236 65.2222 178.751 51.0327C179.333 45.564 178.473 39.9456 176.273 34.9048C174.9 31.7554 172.918 28.7387 169.991 26.9457C165.426 24.1515 159.328 24.9345 154.749 27.7074C150.175 30.4802 146.88 34.9348 144.116 39.522C141.356 44.1049 138.985 48.9574 135.665 53.1509C129.819 60.5323 121.39 65.419 112.746 69.1461C102.596 73.5236 91.6712 76.5661 80.6226 76.2237C67.0836 75.8044 54.2206 70.3614 42.1364 64.2423C40.5446 63.4378 38.8416 62.2611 37.1513 61.7904C36.3426 63.7759 40.7543 68.5556 41.9097 70.1346C44.0321 73.0358 46.3 75.8258 48.7091 78.4917C53.6044 83.9175 59.0645 88.8299 64.9782 93.1176L64.9825 93.1219Z" fill="white"/>
<path d="M137.135 18.5156C116.621 21.2372 98.1055 31.6867 79.0293 39.7143C74.3009 41.704 69.4442 43.5697 64.3435 44.1003C50.2182 45.5681 36.5594 36.9671 29.6957 24.5321C36.6535 19.2345 42.1222 12.2425 40.9754 1.20672C34.7921 0.928581 29.5288 4.46311 26.4307 9.82481C25.806 10.9074 25.2754 12.0927 24.3383 12.9186C23.4011 13.7445 21.8778 14.0996 20.9107 13.3037C15.8271 9.13588 8.08626 8.5796 2.45926 11.9772C3.26373 16.3761 6.35751 20.1246 10.1402 22.5123C13.923 24.9001 18.3432 26.0725 22.7593 26.7957C21.5697 42.4614 29.5416 58.1486 43.8338 64.6785C54.5315 69.5652 66.9281 74.7301 78.6314 75.8897C71.2671 83.1257 63.6417 90.7767 60.5351 100.623C60.2313 101.577 59.9959 102.685 60.5351 103.528C61.0914 104.397 62.2425 104.624 63.2652 104.739C83.5909 107.02 104.601 93.5838 111.054 74.1738C111.743 72.1027 112.509 69.715 114.529 68.8848C123.442 65.2134 131.32 59.0643 137.045 51.3106C141.312 45.5338 144.392 38.9098 149.061 33.454C153.006 28.8411 158.834 24.5534 165.189 24.9814C166.212 25.0498 167.226 25.4264 168.24 25.4264C168.638 25.4264 168.916 25.1739 168.809 24.746C168.638 24.0656 167.88 23.6292 167.324 23.304C164.23 21.5196 160.803 19.748 157.32 18.8922C153.533 17.9594 149.592 17.7326 145.706 17.8224C142.839 17.8909 139.976 18.1391 137.135 18.5156Z" fill="url(#paint0_linear_437_8769)"/>
<path d="M139.429 107.303C138.74 108.091 138.013 108.857 137.14 109.439C136.053 110.158 134.795 110.556 133.55 110.941C132.698 111.206 131.757 111.467 130.939 111.103C129.835 110.611 129.489 109.233 129.33 108.035C128.958 105.172 128.898 102.271 129.155 99.3957C129.176 99.1603 129.206 98.9121 129.356 98.7324C129.506 98.5527 129.75 98.4799 129.981 98.4158C134.054 97.2989 138.205 96.3789 142.129 94.7828C143.896 94.0639 145.09 93.9912 144.94 96.3147C144.821 98.1932 144.08 100.106 143.242 101.771C142.232 103.777 140.905 105.617 139.425 107.303H139.429Z" fill="#996DFF"/>
<path d="M87.9185 99.2907C108.882 102.782 130.624 100.074 149.221 89.4488C165.789 79.9834 180.009 62.4563 177.206 42.2333C176.615 37.9842 175.148 33.842 172.692 30.3075C170.137 26.6274 166.521 24.0514 162.512 22.143C154.095 18.1377 144.385 17.7227 135.284 18.9764C114.817 21.8006 97.0714 32.6396 78.62 41.1122C69.8136 45.1559 60.5751 47.6421 51.0327 44.6253C43.0736 42.1092 36.3212 36.6919 31.4173 30.0165C30.185 28.3391 29.0852 26.5761 28.0968 24.7489C27.3479 23.3582 29.4661 22.1173 30.2149 23.5123C34.3742 31.2232 40.887 37.89 49.0515 41.3004C53.6515 43.2218 58.6495 44.022 63.6089 43.4015C68.7781 42.7553 73.6819 40.7313 78.3633 38.5362C97.0629 29.7683 115.262 18.985 136.122 16.409C145.284 15.2793 154.831 15.9169 163.307 19.8108C167.347 21.668 171.053 24.2098 173.817 27.7272C176.414 31.0349 178.173 34.9417 179.106 39.0411C183.569 58.6992 171.267 77.7626 155.541 88.4133C137.894 100.365 116.173 104.802 95.1245 102.71C92.4928 102.449 89.874 102.089 87.2638 101.653C85.7105 101.392 86.3694 99.0297 87.9142 99.2864L87.9185 99.2907Z" fill="#700F9D"/>
<path d="M23.7269 25.8702C25.5669 46.2729 35.7212 64.8955 50.4926 78.8667C55.1653 83.287 60.2617 87.1981 65.7775 90.5101C67.1297 91.3232 65.8973 93.4456 64.5408 92.6283C46.1407 81.5882 31.3137 63.7273 24.7453 43.2176C22.9395 37.5821 21.8056 31.7625 21.2749 25.8745C21.1337 24.2998 23.5899 24.3126 23.7311 25.8745L23.7269 25.8702Z" fill="#700F9D"/>
<path d="M22.5003 27.028C12.2732 27.7383 3.35988 21.0287 0.0735378 11.5206C-0.444233 10.0229 1.92638 9.38104 2.43987 10.8702C5.38817 19.3941 13.3944 25.2094 22.5003 24.5761C24.075 24.4648 24.0707 26.921 22.5003 27.0323V27.028Z" fill="#700F9D"/>
<path d="M42.1622 0.881473C44.1221 10.672 38.6705 20.7536 29.7443 25.1097C28.3322 25.7986 27.0827 23.6848 28.5077 22.9915C36.3898 19.1446 41.5503 10.2826 39.7959 1.53617C39.4878 -0.00429908 41.8542 -0.667558 42.1622 0.885752V0.881473Z" fill="#700F9D"/>
<path d="M0.929089 10.0114C5.0199 8.45811 10.0692 8.26983 14.3868 8.74908C18.3022 9.18555 21.8752 10.9528 24.6267 13.7685C25.7307 14.8981 23.9977 16.6355 22.8894 15.5058C20.292 12.8485 16.9286 11.3208 13.2186 11.1111C9.37602 10.8972 5.20818 10.9999 1.57951 12.3778C0.10322 12.9383 -0.538639 10.5677 0.929089 10.0114Z" fill="#700F9D"/>
<path d="M41.2304 2.3795C34.3368 3.31662 25.8428 6.67571 24.9913 14.6348C24.8244 16.1881 22.3682 16.2052 22.5351 14.6348C23.515 5.50324 32.3898 1.12572 40.58 0.0131604C42.1247 -0.196515 42.7923 2.16554 41.2304 2.3795Z" fill="#700F9D"/>
<path d="M77.9807 76.2923C60.8943 75.107 43.7223 68.9922 30.9449 57.353C29.7768 56.2875 31.5141 54.5545 32.6823 55.6157C44.9547 66.797 61.5661 72.6979 77.9807 73.8361C79.5469 73.9431 79.5597 76.3993 77.9807 76.2923Z" fill="#700F9D"/>
<path d="M171.019 28.4722C166.256 25.6266 160.505 25.5838 155.64 28.2283C150.843 30.8342 147.771 35.216 145.259 39.9316C142.85 44.4631 140.599 48.9434 137.385 52.9785C134.343 56.804 130.77 60.1589 126.855 63.0772C122.409 66.3892 117.522 69.0166 112.4 71.1176C110.941 71.7167 110.303 69.3418 111.749 68.7513C121.317 64.8316 130.115 58.6441 136.358 50.3298C142.674 41.9214 145.182 30.3336 155.494 25.5538C160.916 23.042 167.112 23.2774 172.26 26.3497C173.616 27.1585 172.38 29.2809 171.023 28.4679L171.019 28.4722Z" fill="#700F9D"/>
<path d="M129.331 46.447C128.937 44.7696 127.401 43.7041 125.677 44.1406C123.824 44.607 123.007 46.3871 123.105 48.1629C123.191 49.7419 120.739 49.7376 120.649 48.1629C120.482 45.1205 122.377 42.2492 125.467 41.6844C128.321 41.1623 131.038 42.9981 131.697 45.8009C132.057 47.3371 129.69 47.9918 129.331 46.4513V46.447Z" fill="#700F9D"/>
<path d="M146.503 93.2228C146.007 99.7527 142.798 105.88 137.594 109.894C135.433 111.563 131.753 113.912 129.318 111.34C128.142 110.1 128.137 108.114 127.962 106.518C127.735 104.447 127.602 102.371 127.534 100.292C127.483 98.7128 129.939 98.7128 129.99 100.292C130.042 101.871 130.119 103.317 130.251 104.823C130.362 106.107 130.213 108.375 130.966 109.462C132.434 111.58 136.794 107.472 137.885 106.402C141.441 102.911 143.67 98.1908 144.051 93.2185C144.171 91.6523 146.627 91.6395 146.507 93.2185L146.503 93.2228Z" fill="#700F9D"/>
<path d="M73.8959 80.6603C65.2179 79.2909 56.7581 76.8775 48.7091 73.3516C47.8062 72.9579 48.585 71.6357 49.4836 72.0251C57.4042 75.4954 65.7699 77.8318 74.3024 79.1797C75.2737 79.3337 74.8629 80.81 73.8959 80.6603Z" fill="#996DFF"/>
<path d="M156.089 34.6514C154.566 43.2181 151.216 51.2585 145.832 58.1308C140.107 65.4395 132.653 71.2676 124.219 75.1316C119.285 77.391 114.099 79.017 108.788 80.1253C107.826 80.3264 107.415 78.8501 108.382 78.6447C125.828 74.9947 142.041 64.8875 150.082 48.5328C152.298 44.0183 153.732 39.183 154.613 34.2406C154.784 33.2692 156.265 33.68 156.094 34.6471L156.089 34.6514Z" fill="#9B4DFF"/>
<path d="M69.6335 85.9924C63.938 84.5075 58.388 82.5691 53.0178 80.1557C52.1192 79.7492 52.898 78.4269 53.7923 78.8291C59.0385 81.1912 64.4772 83.0654 70.04 84.5118C70.9943 84.76 70.5877 86.2405 69.6335 85.9924Z" fill="#996DFF"/>
<path d="M164.783 34.3019C164.715 46.1336 160.277 57.5588 152.759 66.6476C145.104 75.899 134.47 82.2277 123.071 85.7238C116.335 87.7906 109.343 88.8732 102.321 89.2797C101.337 89.3353 101.337 87.8034 102.321 87.7478C114.119 87.0717 125.916 84.333 136.242 78.4279C146.289 72.6854 154.501 64.0288 159.182 53.3952C161.831 47.3788 163.213 40.8703 163.251 34.3019C163.256 33.3134 164.792 33.3134 164.783 34.3019Z" fill="#9B4DFF"/>
<path d="M172.061 34.5716C174.752 48.0379 170.003 61.2432 161.209 71.4874C151.752 82.506 138.543 89.8489 124.512 93.2166C115.123 95.4717 105.427 96.0194 95.8075 95.6257C94.8233 95.5872 94.819 94.051 95.8075 94.0938C111.7 94.7442 127.948 92.6475 142.069 84.9023C153.477 78.642 163.768 68.8942 168.591 56.6047C171.295 49.7068 172.035 42.2612 170.585 34.9867C170.392 34.0239 171.868 33.6088 172.065 34.5802L172.061 34.5716Z" fill="#9B4DFF"/>
<path d="M88.4267 65.1551C82.727 71.6166 77.0187 78.0823 71.6997 84.8646C68.9954 88.3136 66.398 91.8481 63.9589 95.4896C62.8335 97.167 61.6011 98.8744 60.664 100.663C60.2018 101.545 59.8467 102.426 60.6554 103.192C61.3486 103.851 62.4569 104.069 63.3598 104.24C71.2034 105.738 79.5091 103.44 86.407 99.7302C93.0952 96.1315 99.0817 91.0351 103.63 84.9459C108.71 78.1422 111.957 69.9819 111.564 61.4024C111.491 59.8234 113.947 59.8277 114.02 61.4024C114.794 78.3433 102.496 93.5726 88.324 101.476C80.8784 105.627 72.2518 108.002 63.715 106.765C60.4243 106.29 56.3977 104.39 58.0794 100.363C58.9481 98.2839 60.4372 96.3497 61.6824 94.4797C63.0303 92.4557 64.4296 90.4702 65.8673 88.5104C72.3031 79.7383 79.5005 71.5695 86.6937 63.4178C87.7421 62.2325 89.4708 63.9741 88.431 65.1551H88.4267Z" fill="#700F9D"/>
<defs>
<linearGradient id="paint0_linear_437_8769" x1="85.6448" y1="1.18961" x2="85.6448" y2="104.992" gradientUnits="userSpaceOnUse">
<stop stop-color="white"/>
<stop offset="0.58" stop-color="#996DFF"/>
</linearGradient>
</defs>
</svg>
