<svg width="121" height="121" viewBox="0 0 121 121" fill="none" xmlns="http://www.w3.org/2000/svg">
<path d="M60.4167 120.833C27.0485 120.833 0 93.7848 0 60.4167C0 27.0485 27.0485 0 60.4167 0C93.7848 0 120.833 27.0485 120.833 60.4167C120.833 93.7848 93.7848 120.833 60.4167 120.833ZM39.2708 72.5V84.5833H54.375V96.6667H66.4583V84.5833H72.5C76.5059 84.5833 80.3477 82.992 83.1803 80.1594C86.0128 77.3268 87.6042 73.485 87.6042 69.4792C87.6042 65.4733 86.0128 61.6315 83.1803 58.7989C80.3477 55.9663 76.5059 54.375 72.5 54.375H48.3333C47.5322 54.375 46.7638 54.0567 46.1973 53.4902C45.6308 52.9237 45.3125 52.1553 45.3125 51.3542C45.3125 50.553 45.6308 49.7846 46.1973 49.2181C46.7638 48.6516 47.5322 48.3333 48.3333 48.3333H81.5625V36.25H66.4583V24.1667H54.375V36.25H48.3333C44.3275 36.25 40.4857 37.8413 37.6531 40.6739C34.8205 43.5065 33.2292 47.3483 33.2292 51.3542C33.2292 55.36 34.8205 59.2018 37.6531 62.0344C40.4857 64.867 44.3275 66.4583 48.3333 66.4583H72.5C73.3012 66.4583 74.0695 66.7766 74.6361 67.3431C75.2026 67.9096 75.5208 68.678 75.5208 69.4792C75.5208 70.2803 75.2026 71.0487 74.6361 71.6152C74.0695 72.1817 73.3012 72.5 72.5 72.5H39.2708Z" fill="#996DFF"/>
</svg>
